
        <svg xmlns="http://www.w3.org/2000/svg" xmlns:xlink="http://www.w3.org/1999/xlink" version="1.1" width="3162.1621621621625" 
        height="1088.755192024701" viewBox="0 0 3162.1621621621625 1088.755192024701">
			<rect fill="#111111" width="3162.1621621621625" height="1088.755192024701"/>
			<g transform="scale(8.108108108108109) translate(10, 10)">
				<defs id="SvgjsDefs10227"></defs><g id="SvgjsG10228" featureKey="nRdZyp-0" transform="matrix(0.21007531951572664,0,0,0.21007531951572664,-1.4268112969977655,-1.4296725017894676)" fill="#588157"><g xmlns="http://www.w3.org/2000/svg"><rect x="76.5" y="76.5" transform="matrix(0.7071 -0.7071 0.7071 0.7071 -101.3944 244.8154)" width="336.6" height="336.6" style="fill: none; stroke: #588157; stroke-width: 13.5999; stroke-linecap: round; stroke-linejoin: round; stroke-miterlimit: 67.9997;"></rect><path d="M244.8,410.7L78.9,244.8L244.8,78.9l165.9,165.9L244.8,410.7z M151.1,244.8l93.7,93.7l93.7-93.7l-93.7-93.8L151.1,244.8z"></path><path d="M244.8,410.7L78.9,244.8L244.8,78.9l165.9,165.9L244.8,410.7z M151.1,244.8l93.7,93.7l93.7-93.7l-93.7-93.8   L151.1,244.8z" style="fill: none; stroke: #588157; stroke-width: 13.6001; stroke-linecap: round; stroke-linejoin: round; stroke-miterlimit: 68.0004;"></path><rect x="229.5" y="229.5" transform="matrix(0.7072 -0.707 0.707 0.7072 -101.4169 244.7354)" width="30.6" height="30.6"></rect><rect x="229.5" y="229.5" transform="matrix(0.7072 -0.707 0.707 0.7072 -101.4169 244.7354)" width="30.6" height="30.6" style="fill: none; stroke: #588157; stroke-width: 13.5999; stroke-linecap: round; stroke-linejoin: round; stroke-miterlimit: 67.9997;"></rect><polygon points="244.8,482.8 448.8,278.8 482.8,312.8 244.8,550.8 6.8,312.8 40.8,278.8  "></polygon><polygon points="244.8,482.8 448.8,278.8 482.8,312.8 244.8,550.8 6.8,312.8 40.8,278.8  " style="fill: none; stroke: #588157; stroke-width: 13.6001; stroke-linecap: round; stroke-linejoin: round; stroke-miterlimit: 68.0004;"></polygon></g></g><g id="SvgjsG10229" featureKey="Q4qmbg-0" transform="matrix(5.406745033229504,0,0,5.406745033229504,115.4583333470834,-22.46725959966195)" fill="#ffffff"><path d="M3.9 10.12 l0 9.88 l-2.96 0 l0 -9.88 l2.96 0 z M3.98 7.279999999999999 c0 0.84 -0.68 1.5 -1.58 1.5 c-0.86 0 -1.56 -0.66 -1.56 -1.5 c0 -0.82 0.7 -1.46 1.56 -1.46 c0.9 0 1.58 0.64 1.58 1.46 z M14.747708333333332 14.36 l0 5.64 l-2.96 0 l0 -5.64 c0 -1.5 -0.4 -2.16 -1.56 -2.16 c-1.2 0 -1.9 0.66 -1.9 2.16 l0 5.64 l-2.96 0 l0 -9.88 l2.96 0 l0 0.94 c0.76 -0.74 1.8 -1.08 2.66 -1.08 c2.78 0 3.76 1.34 3.76 4.38 z M18.775416666666665 13.24 c0 1.18 5 0.62 5 3.74 c0 2.04 -1.8 3.18 -4.04 3.18 c-1.42 0 -2.84 -0.7 -3.96 -1.82 l1.94 -1.94 c0.56 0.68 1.36 1.2 2.02 1.26 s1.22 -0.22 1.32 -0.52 c0.24 -0.76 -1.14 -0.8 -1.56 -0.92 c-1.58 -0.48 -3.42 -1.14 -3.42 -3.1 c0 -2.34 2.44 -3.14 3.66 -3.14 c1.4 0 2.82 0.64 3.96 1.8 l-1.92 1.92 c-0.52 -0.68 -1.42 -1.22 -2.04 -1.22 c-0.32 0 -0.96 0.12 -0.96 0.76 z M27.923124999999995 10.12 l0 9.88 l-2.96 0 l0 -9.88 l2.96 0 z M28.003124999999997 7.279999999999999 c0 0.84 -0.68 1.5 -1.58 1.5 c-0.86 0 -1.56 -0.66 -1.56 -1.5 c0 -0.82 0.7 -1.46 1.56 -1.46 c0.9 0 1.58 0.64 1.58 1.46 z M33.070833333333326 15.8 c0 0.72 -0.02 1.92 1.08 1.92 c0.54 0 0.88 -0.22 1.26 -0.5 l0 2.44 c-0.46 0.26 -1.02 0.5 -1.62 0.5 c-2.54 0 -3.68 -1.08 -3.68 -4.36 l0 -3.24 l-1.1 0 l0 -2.44 l1.1 0 l0 -2.84 l2.96 0 l0 2.84 l2.34 0 l0 2.44 l-2.34 0 l0 3.24 z M47.07854166666666 15.08 l0 0.66 l-7.04 0 c0 1.16 1.18 1.98 2.16 1.98 c0.96 0 1.84 -0.38 2.3 -1.22 l1.98 1.82 c-0.8 1.08 -2.02 1.84 -4.28 1.84 c-3.24 0 -5.22 -2.16 -5.22 -5.08 s1.92 -5.1 5.04 -5.1 s5.06 2.14 5.06 5.1 z M40.09854166666666 13.86 l3.88 0 c-0.16 -0.94 -0.84 -1.44 -1.96 -1.44 c-1.08 0 -1.74 0.58 -1.92 1.44 z"></path></g><g id="SvgjsG10230" featureKey="sloganFeature-0" transform="matrix(0.5084142496250662,0,0,0.5084142496250662,120.21353402363145,94.53927495423682)" fill="#dad7cd"><path d="M6.8 20 l-1.88 0 l-5.34 -15 l3.36 0 l2.96 8.74 c1.02 -2.86 2.12 -5.98 3.12 -8.74 l1.9 0 l3.1 8.72 c0.98 -2.88 2.04 -5.9 2.98 -8.72 l3.38 0 l-5.34 15 l-1.9 0 l-3.16 -8.72 c-1.04 2.88 -2.16 5.92 -3.18 8.72 z M30.28 5 l3.2 0 l0 15 l-3.2 0 l0 -6.16 l-5.5 0 l0 6.16 l-3.2 0 l0 -15 l3.2 0 l0 6.16 l5.5 0 l0 -6.16 z M39.84 17.34 l7.64 0 l0 2.66 l-10.84 0 l0 -15 l10.48 0 l0 2.66 l-7.28 0 l0 3.22 l5.96 0 l0 2.68 l-5.96 0 l0 3.78 z M61.540000000000006 10.46 c0 2.1 -1.12 3.86 -2.82 4.78 l3.22 4.76 l-3.6 0 l-2.74 -4.08 l-2.4 0 l0 4.08 l-3.22 0 l0 -15 l6.02 0 c3.08 0.02 5.54 2.36 5.54 5.46 z M53.20000000000001 7.66 l0 5.6 l2.78 0 c1.3 0 2.36 -1.18 2.36 -2.8 s-1.06 -2.8 -2.36 -2.8 l-2.78 0 z M67.28000000000002 17.34 l7.64 0 l0 2.66 l-10.84 0 l0 -15 l10.48 0 l0 2.66 l-7.28 0 l0 3.22 l5.96 0 l0 2.68 l-5.96 0 l0 3.78 z M94.36 15.440000000000001 l2.12 2.12 c-1.54 1.72 -3.66 2.62 -5.9 2.62 c-4.28 0 -7.7 -3.32 -7.7 -7.68 c0 -4.34 3.42 -7.66 7.7 -7.66 c2.24 0 4.36 0.9 5.92 2.64 l-2.16 2.16 c-0.84 -1.4 -2.28 -2.14 -3.76 -2.14 c-2.66 0 -4.5 2.42 -4.5 5 s1.82 5.02 4.5 5.02 c1.14 0 2.26 -0.34 3.78 -2.08 z M105.6 7.5 c-2.64 0 -4.5 2.44 -4.5 5 c0 2.54 1.86 5.02 4.5 5.02 c2.68 0 4.5 -2.44 4.5 -5.02 s-1.82 -5 -4.5 -5 z M105.6 4.84 c4.26 0 7.7 3.32 7.7 7.66 c0 4.36 -3.44 7.68 -7.7 7.68 s-7.7 -3.32 -7.7 -7.68 c0 -4.34 3.44 -7.66 7.7 -7.66 z M129.14 5 l0 15 l-3.42 0 l-6.64 -9.84 l0 9.84 l-3.22 0 l0 -15 l3.4 0 l6.66 9.86 l0 -9.86 l3.22 0 z M142.56 5 l0 2.66 l-4.34 0 l0 12.34 l-3.22 0 l0 -12.34 l-4.34 0 l0 -2.66 l11.9 0 z M155.73999999999998 10.46 c0 2.1 -1.12 3.86 -2.82 4.78 l3.22 4.76 l-3.6 0 l-2.74 -4.08 l-2.4 0 l0 4.08 l-3.22 0 l0 -15 l6.02 0 c3.08 0.02 5.54 2.36 5.54 5.46 z M147.39999999999998 7.66 l0 5.6 l2.78 0 c1.3 0 2.36 -1.18 2.36 -2.8 s-1.06 -2.8 -2.36 -2.8 l-2.78 0 z M164.59999999999997 5 l6.16 15 l-3.44 0 l-1.22 -2.88 l-5.1 0 l-1.18 2.88 l-3.46 0 l6.18 -15 l2.06 0 z M162.01999999999998 14.46 l3.08 0 l-1.54 -4.32 c-0.46 1.24 -1.02 2.92 -1.54 4.32 z M181.97999999999996 15.440000000000001 l2.12 2.12 c-1.54 1.72 -3.66 2.62 -5.9 2.62 c-4.28 0 -7.7 -3.32 -7.7 -7.68 c0 -4.34 3.42 -7.66 7.7 -7.66 c2.24 0 4.36 0.9 5.92 2.64 l-2.16 2.16 c-0.84 -1.4 -2.28 -2.14 -3.76 -2.14 c-2.66 0 -4.5 2.42 -4.5 5 s1.82 5.02 4.5 5.02 c1.14 0 2.26 -0.34 3.78 -2.08 z M196.77999999999997 5 l0 2.66 l-4.34 0 l0 12.34 l-3.22 0 l0 -12.34 l-4.34 0 l0 -2.66 l11.9 0 z M205.19999999999996 7.5 c-2.64 0 -4.5 2.44 -4.5 5 c0 2.54 1.86 5.02 4.5 5.02 c2.68 0 4.5 -2.44 4.5 -5.02 s-1.82 -5 -4.5 -5 z M205.19999999999996 4.84 c4.26 0 7.7 3.32 7.7 7.66 c0 4.36 -3.44 7.68 -7.7 7.68 s-7.7 -3.32 -7.7 -7.68 c0 -4.34 3.44 -7.66 7.7 -7.66 z M226.59999999999994 10.46 c0 2.1 -1.12 3.86 -2.82 4.78 l3.22 4.76 l-3.6 0 l-2.74 -4.08 l-2.4 0 l0 4.08 l-3.22 0 l0 -15 l6.02 0 c3.08 0.02 5.54 2.36 5.54 5.46 z M218.25999999999993 7.66 l0 5.6 l2.78 0 c1.3 0 2.36 -1.18 2.36 -2.8 s-1.06 -2.8 -2.36 -2.8 l-2.78 0 z M234.81999999999994 11.08 c2.4 0.72 5.12 1.88 5.12 4.78 c0 2.94 -2.56 4.32 -5.78 4.32 c-2.64 0 -4.34 -1.1 -5.94 -2.82 l2.24 -2.22 c0.54 1.12 2.2 2.38 3.7 2.38 c1.08 -0.02 2.56 -0.3 2.56 -1.66 c0 -1.32 -1.5 -1.86 -2.74 -2.24 c-2.26 -0.68 -5 -1.8 -5 -4.64 c0 -2.72 2.56 -4.14 5.18 -4.14 c2.24 0 4.34 1.1 5.92 2.84 l-2.16 2.16 c-0.68 -0.9 -2.08 -2.34 -3.76 -2.34 c-0.96 0 -1.98 0.42 -1.98 1.5 c0 1.22 1.5 1.72 2.64 2.08 z M259.13999999999993 7.66 l-7.26 0 l0 3.46 l5.94 0 l0 2.66 l-5.94 0 l0 6.22 l-3.2 0 l0 -15 l10.46 0 l0 2.66 z M264.5199999999999 5 l0 15 l-3.2 0 l0 -15 l3.2 0 z M281.17999999999995 5 l0 15 l-3.42 0 l-6.64 -9.84 l0 9.84 l-3.22 0 l0 -15 l3.4 0 l6.66 9.86 l0 -9.86 l3.22 0 z M297.61999999999995 12.5 c0 4.14 -3.26 7.48 -7.32 7.5 l-6.02 0 l0 -15 l6.02 0 c4.06 0.02 7.32 3.38 7.32 7.5 z M290.2799999999999 17.34 c2.46 -0.02 4.14 -2.42 4.14 -4.84 s-1.7 -4.8 -4.14 -4.84 l-2.8 0 l0 9.68 l2.8 0 z M317.0199999999999 15.440000000000001 l2.12 2.12 c-1.54 1.72 -3.66 2.62 -5.9 2.62 c-4.28 0 -7.7 -3.32 -7.7 -7.68 c0 -4.34 3.42 -7.66 7.7 -7.66 c2.24 0 4.36 0.9 5.92 2.64 l-2.16 2.16 c-0.84 -1.4 -2.28 -2.14 -3.76 -2.14 c-2.66 0 -4.5 2.42 -4.5 5 s1.82 5.02 4.5 5.02 c1.14 0 2.26 -0.34 3.78 -2.08 z M324.4599999999999 17.34 l6.28 0 l0 2.66 l-9.5 0 l0 -15 l3.22 0 l0 12.34 z M339.93999999999994 5 l6.16 15 l-3.44 0 l-1.22 -2.88 l-5.1 0 l-1.18 2.88 l-3.46 0 l6.18 -15 l2.06 0 z M337.3599999999999 14.46 l3.08 0 l-1.54 -4.32 c-0.46 1.24 -1.02 2.92 -1.54 4.32 z M358.87999999999994 10.46 c0 2.1 -1.12 3.86 -2.82 4.78 l3.22 4.76 l-3.6 0 l-2.74 -4.08 l-2.4 0 l0 4.08 l-3.22 0 l0 -15 l6.02 0 c3.08 0.02 5.54 2.36 5.54 5.46 z M350.5399999999999 7.66 l0 5.6 l2.78 0 c1.3 0 2.36 -1.18 2.36 -2.8 s-1.06 -2.8 -2.36 -2.8 l-2.78 0 z M364.49999999999994 5 l0 15 l-3.2 0 l0 -15 l3.2 0 z M377.81999999999994 5 l0 2.66 l-4.34 0 l0 12.34 l-3.22 0 l0 -12.34 l-4.34 0 l0 -2.66 l11.9 0 z M389.11999999999995 5 l3.84 0 l-6.2 9.08 l0 5.92 l-3.22 0 l0 -5.92 l-6.2 -9.08 l3.84 0 l3.96 6.06 z"></path></g>
			</g>
		</svg>
	