
        <svg xmlns="http://www.w3.org/2000/svg" xmlns:xlink="http://www.w3.org/1999/xlink" version="1.1" width="3162.1621621621625" height="1088.755192024701" viewBox="0 0 3162.1621621621625 1088.755192024701">
			
			<g transform="scale(8.108108108108109) translate(10, 10)">
				<defs id="SvgjsDefs10641"/><g id="SvgjsG10642" featureKey="nRdZyp-0" transform="matrix(0.21007531951572664,0,0,0.21007531951572664,-1.4268112969977655,-1.4296725017894676)" fill="#fff"><g xmlns="http://www.w3.org/2000/svg"><rect x="76.5" y="76.5" transform="matrix(0.7071 -0.7071 0.7071 0.7071 -101.3944 244.8154)" class="st0" width="336.6" height="336.6" style="fill: none; stroke: #588157; stroke-width: 13.5999; stroke-linecap: round; stroke-linejoin: round; stroke-miterlimit: 67.9997;"/><path d="M244.8,410.7L78.9,244.8L244.8,78.9l165.9,165.9L244.8,410.7z M151.1,244.8l93.7,93.7l93.7-93.7l-93.7-93.8L151.1,244.8z"/><path class="st1" d="M244.8,410.7L78.9,244.8L244.8,78.9l165.9,165.9L244.8,410.7z M151.1,244.8l93.7,93.7l93.7-93.7l-93.7-93.8   L151.1,244.8z" style="fill: none; stroke: #588157; stroke-width: 13.6001; stroke-linecap: round; stroke-linejoin: round; stroke-miterlimit: 68.0004;"/><rect x="229.5" y="229.5" transform="matrix(0.7072 -0.707 0.707 0.7072 -101.4169 244.7354)" width="30.6" height="30.6"/><rect x="229.5" y="229.5" transform="matrix(0.7072 -0.707 0.707 0.7072 -101.4169 244.7354)" class="st0" width="30.6" height="30.6" style="fill: none; stroke: #588157; stroke-width: 13.5999; stroke-linecap: round; stroke-linejoin: round; stroke-miterlimit: 67.9997;"/><polygon points="244.8,482.8 448.8,278.8 482.8,312.8 244.8,550.8 6.8,312.8 40.8,278.8  "/><polygon class="st1" points="244.8,482.8 448.8,278.8 482.8,312.8 244.8,550.8 6.8,312.8 40.8,278.8  " style="fill: none; stroke: #588157; stroke-width: 13.6001; stroke-linecap: round; stroke-linejoin: round; stroke-miterlimit: 68.0004;"/></g></g><g id="SvgjsG10643" featureKey="Q4qmbg-0" transform="matrix(5.406745033229504,0,0,5.406745033229504,115.4583333470834,-13.46725959966195)" fill="#fff"><path d="M3.9 10.12 l0 9.88 l-2.96 0 l0 -9.88 l2.96 0 z M3.98 7.279999999999999 c0 0.84 -0.68 1.5 -1.58 1.5 c-0.86 0 -1.56 -0.66 -1.56 -1.5 c0 -0.82 0.7 -1.46 1.56 -1.46 c0.9 0 1.58 0.64 1.58 1.46 z M14.747708333333332 14.36 l0 5.64 l-2.96 0 l0 -5.64 c0 -1.5 -0.4 -2.16 -1.56 -2.16 c-1.2 0 -1.9 0.66 -1.9 2.16 l0 5.64 l-2.96 0 l0 -9.88 l2.96 0 l0 0.94 c0.76 -0.74 1.8 -1.08 2.66 -1.08 c2.78 0 3.76 1.34 3.76 4.38 z M18.775416666666665 13.24 c0 1.18 5 0.62 5 3.74 c0 2.04 -1.8 3.18 -4.04 3.18 c-1.42 0 -2.84 -0.7 -3.96 -1.82 l1.94 -1.94 c0.56 0.68 1.36 1.2 2.02 1.26 s1.22 -0.22 1.32 -0.52 c0.24 -0.76 -1.14 -0.8 -1.56 -0.92 c-1.58 -0.48 -3.42 -1.14 -3.42 -3.1 c0 -2.34 2.44 -3.14 3.66 -3.14 c1.4 0 2.82 0.64 3.96 1.8 l-1.92 1.92 c-0.52 -0.68 -1.42 -1.22 -2.04 -1.22 c-0.32 0 -0.96 0.12 -0.96 0.76 z M27.923124999999995 10.12 l0 9.88 l-2.96 0 l0 -9.88 l2.96 0 z M28.003124999999997 7.279999999999999 c0 0.84 -0.68 1.5 -1.58 1.5 c-0.86 0 -1.56 -0.66 -1.56 -1.5 c0 -0.82 0.7 -1.46 1.56 -1.46 c0.9 0 1.58 0.64 1.58 1.46 z M33.070833333333326 15.8 c0 0.72 -0.02 1.92 1.08 1.92 c0.54 0 0.88 -0.22 1.26 -0.5 l0 2.44 c-0.46 0.26 -1.02 0.5 -1.62 0.5 c-2.54 0 -3.68 -1.08 -3.68 -4.36 l0 -3.24 l-1.1 0 l0 -2.44 l1.1 0 l0 -2.84 l2.96 0 l0 2.84 l2.34 0 l0 2.44 l-2.34 0 l0 3.24 z M47.07854166666666 15.08 l0 0.66 l-7.04 0 c0 1.16 1.18 1.98 2.16 1.98 c0.96 0 1.84 -0.38 2.3 -1.22 l1.98 1.82 c-0.8 1.08 -2.02 1.84 -4.28 1.84 c-3.24 0 -5.22 -2.16 -5.22 -5.08 s1.92 -5.1 5.04 -5.1 s5.06 2.14 5.06 5.1 z M40.09854166666666 13.86 l3.88 0 c-0.16 -0.94 -0.84 -1.44 -1.96 -1.44 c-1.08 0 -1.74 0.58 -1.92 1.44 z"/></g>
			</g>
		</svg>
	